<?xml version="1.0" encoding="UTF-8"?>
<svg width="240px" height="96px" viewBox="0 0 240 96" version="1.1" xmlns="http://www.w3.org/2000/svg" xmlns:xlink="http://www.w3.org/1999/xlink">
    <!-- Generator: Sketch 51.3 (57544) - http://www.bohemiancoding.com/sketch -->
    <title>Artboard</title>
    <desc>Created with Sketch.</desc>
    <defs></defs>
    <g id="Artboard" stroke="none" stroke-width="1" fill="none" fill-rule="evenodd">
        <path id="Line" d="M78.7256531,35.3210612 L54.7256531,21.8210612 L54.7256531,26.1789388 L78.7256531,12.6789388 L80.9045919,11.4532857 L78.4532857,7.09540806 L76.2743469,8.32106116 L52.2743469,21.8210612 L48.4006778,24 L52.2743469,26.1789388 L76.2743469,39.6789388 L78.4532857,40.9045919 L80.9045919,36.5467143 L78.7256531,35.3210612 Z M191.5,21.5 L179.5,21.5 L177,21.5 L177,26.5 L179.5,26.5 L191.5,26.5 L194,26.5 L194,21.5 L191.5,21.5 Z M167.5,21.5 L155.5,21.5 L153,21.5 L153,26.5 L155.5,26.5 L167.5,26.5 L170,26.5 L170,21.5 L167.5,21.5 Z M143.5,21.5 L131.5,21.5 L129,21.5 L129,26.5 L131.5,26.5 L143.5,26.5 L146,26.5 L146,21.5 L143.5,21.5 Z M119.5,21.5 L107.5,21.5 L105,21.5 L105,26.5 L107.5,26.5 L119.5,26.5 L122,26.5 L122,21.5 L119.5,21.5 Z M95.5,21.5 L83.5,21.5 L81,21.5 L81,26.5 L83.5,26.5 L95.5,26.5 L98,26.5 L98,21.5 L95.5,21.5 Z M71.5,21.5 L59.5,21.5 L57,21.5 L57,26.5 L59.5,26.5 L71.5,26.5 L74,26.5 L74,21.5 L71.5,21.5 Z" fill="#C51B7D" fill-rule="nonzero"></path>
        <circle id="Oval" stroke="#C51B7D" stroke-width="3" fill="#C51B7D" cx="22.5" cy="22.5" r="18.5"></circle>
        <circle id="Oval" fill="#FFFFFF" cx="23" cy="35" r="11"></circle>
        <path d="M215.5,44 C225.717268,44 234,35.7172679 234,25.5 C234,15.2827321 225.717268,7 215.5,7 C205.282732,7 197,15.2827321 197,25.5 C197,35.7172679 205.282732,44 215.5,44 Z" id="Oval" stroke="#C51B7D" stroke-width="5" stroke-dasharray="12"></path>
        <g id="pointer" transform="translate(8.000000, 28.000000)" fill="#C51B7D" fill-rule="nonzero">
            <path d="M41.0181818,21.6666667 C40.1636364,21.6666667 38.8818182,21.6666667 38.4545455,21.6666667 C38.4545455,20.8 37.6,19.0666667 36.7454545,18.2 C35.8909091,17.3333333 34.1818182,16.4666667 32.0454545,16.4666667 C31.1909091,16.4666667 30.3363636,16.4666667 29.4818182,16.9 C29.0545455,16.0333333 28.6272727,15.6 28.2,14.7333333 C27.3454545,13.8666667 26.0636364,13 23.5,13 C22.6454545,13 21.7909091,13 21.3636364,13.4333333 L21.3636364,6.06666667 C21.3636364,3.46666667 19.6545455,0 15.3818182,0 C13.6727273,0 11.9636364,0.866666667 10.6818182,1.73333333 C8.54545455,4.33333333 8.54545455,7.8 8.54545455,7.8 L8.54545455,26.4333333 C5.98181818,26.8666667 3.84545455,27.7333333 2.56363636,29.0333333 C0,32.0666667 0,35.9666667 0,41.1666667 C0,42.0333333 0,43.3333333 0,44.2 C0,50.2666667 2.99090909,53.3 5.98181818,56.3333333 L7.26363636,58.0666667 C12.8181818,63.2666667 17.5181818,65 29.0545455,65 C41.4454545,65 47,58.0666667 47,42.9 L47,32.0666667 C47,29.0333333 46.1454545,22.9666667 41.0181818,21.6666667 Z M42.7272727,32.0666667 L42.7272727,43.3333333 C42.7272727,58.0666667 37.1727273,61.1 29.0545455,61.1 C18.8,61.1 14.9545455,59.8 10.6818182,55.4666667 C10.2545455,55.0333333 9.82727273,54.6 8.97272727,53.7333333 C5.98181818,50.2666667 4.27272727,48.5333333 4.27272727,44.2 C4.27272727,43.3333333 4.27272727,42.0333333 4.27272727,41.1666667 C4.27272727,36.8333333 4.27272727,33.8 5.55454545,32.0666667 C5.98181818,31.6333333 7.26363636,31.2 8.54545455,31.2 L8.54545455,33.3666667 L7.26363636,39.8666667 C7.26363636,40.3 7.26363636,40.3 7.69090909,40.7333333 C8.11818182,41.1666667 8.54545455,40.7333333 8.54545455,40.7333333 L12.8181818,35.5333333 C12.8181818,35.1 12.8181818,34.6666667 12.8181818,34.6666667 L12.8181818,7.8 C12.8181818,7.36666667 12.8181818,5.63333333 13.6727273,4.76666667 C14.1,4.76666667 14.5272727,4.33333333 15.3818182,4.33333333 C16.6636364,4.33333333 17.0909091,5.63333333 17.0909091,6.06666667 L17.0909091,19.5 C17.0909091,19.5 17.0909091,19.5 17.0909091,19.5 L17.0909091,24.7 C17.0909091,26 17.9454545,27.3 19.2272727,27.3 C20.5090909,27.3 21.3636364,26 21.3636364,25.1333333 L21.3636364,19.5 C21.3636364,19.5 21.3636364,19.5 21.3636364,19.5 C21.3636364,19.0666667 21.7909091,17.3333333 23.5,17.3333333 C24.7818182,17.3333333 25.6363636,17.7666667 25.6363636,19.0666667 L25.6363636,24.7 C25.6363636,26 26.4909091,27.3 27.7727273,27.3 C29.0545455,27.3 29.9090909,26 29.9090909,25.1333333 L29.9090909,22.1 C29.9090909,21.6666667 30.3363636,20.8 32.0454545,20.8 C32.9,20.8 33.3272727,21.2333333 33.3272727,21.2333333 C34.1818182,21.6666667 34.1818182,22.9666667 34.1818182,22.9666667 L34.1818182,26.4333333 C34.1818182,27.7333333 35.0363636,28.6 35.8909091,28.6 C37.1727273,28.6 38.0272727,28.1666667 38.0272727,26.8666667 C38.0272727,26.4333333 38.4545455,26 38.8818182,25.5666667 C38.8818182,25.5666667 39.3090909,25.5666667 39.7363636,25.5666667 C42.3,26.4333333 42.7272727,30.7666667 42.7272727,32.0666667 C42.7272727,31.6333333 42.7272727,31.6333333 42.7272727,32.0666667 Z" id="Shape"></path>
        </g>
    </g>
</svg>