<?xml version="1.0" encoding="UTF-8"?>
<svg width="336px" height="115px" viewBox="0 0 336 115" version="1.1" xmlns="http://www.w3.org/2000/svg" xmlns:xlink="http://www.w3.org/1999/xlink">
    <!-- Generator: Sketch 51.3 (57544) - http://www.bohemiancoding.com/sketch -->
    <title>Artboard</title>
    <desc>Created with Sketch.</desc>
    <defs></defs>
    <g id="Artboard" stroke="none" stroke-width="1" fill="none" fill-rule="evenodd">
        <path id="Line" d="M89.7353919,50.6926367 L73.7353919,41.6926367 L73.7353919,44.3073633 L89.7353919,35.3073633 L91.0427552,34.5719714 L89.5719714,31.9572448 L88.2646081,32.6926367 L72.2646081,41.6926367 L69.9404067,43 L72.2646081,44.3073633 L88.2646081,53.3073633 L89.5719714,54.0427552 L91.0427552,51.4280286 L89.7353919,50.6926367 Z M273,41.5 L263,41.5 L261.5,41.5 L261.5,44.5 L263,44.5 L273,44.5 L274.5,44.5 L274.5,41.5 L273,41.5 Z M253,41.5 L243,41.5 L241.5,41.5 L241.5,44.5 L243,44.5 L253,44.5 L254.5,44.5 L254.5,41.5 L253,41.5 Z M233,41.5 L223,41.5 L221.5,41.5 L221.5,44.5 L223,44.5 L233,44.5 L234.5,44.5 L234.5,41.5 L233,41.5 Z M213,41.5 L203,41.5 L201.5,41.5 L201.5,44.5 L203,44.5 L213,44.5 L214.5,44.5 L214.5,41.5 L213,41.5 Z M193,41.5 L183,41.5 L181.5,41.5 L181.5,44.5 L183,44.5 L193,44.5 L194.5,44.5 L194.5,41.5 L193,41.5 Z M173,41.5 L163,41.5 L161.5,41.5 L161.5,44.5 L163,44.5 L173,44.5 L174.5,44.5 L174.5,41.5 L173,41.5 Z M153,41.5 L143,41.5 L141.5,41.5 L141.5,44.5 L143,44.5 L153,44.5 L154.5,44.5 L154.5,41.5 L153,41.5 Z M133,41.5 L123,41.5 L121.5,41.5 L121.5,44.5 L123,44.5 L133,44.5 L134.5,44.5 L134.5,41.5 L133,41.5 Z M113,41.5 L103,41.5 L101.5,41.5 L101.5,44.5 L103,44.5 L113,44.5 L114.5,44.5 L114.5,41.5 L113,41.5 Z M93,41.5 L89,41.5 L83,41.5 L81.5,41.5 L81.5,44.5 L83,44.5 L89,44.5 L93,44.5 L94.5,44.5 L94.5,41.5 L93,41.5 Z" fill="#C51B7D" fill-rule="nonzero"></path>
        <circle id="Oval" stroke="#C51B7D" stroke-width="3" fill="#C51B7D" cx="41.5" cy="41.5" r="18.5"></circle>
        <circle id="Oval" fill="#FFFFFF" cx="42" cy="54" r="11"></circle>
        <path d="M306.5,60 C316.717268,60 325,51.7172679 325,41.5 C325,31.2827321 316.717268,23 306.5,23 C296.282732,23 288,31.2827321 288,41.5 C288,51.7172679 296.282732,60 306.5,60 Z" id="Oval" stroke="#C51B7D" stroke-width="3" fill="#FFFFFF" stroke-dasharray="10"></path>
        <g id="pointer" transform="translate(27.000000, 47.000000)" fill="#C51B7D" fill-rule="nonzero">
            <path d="M41.0181818,21.6666667 C40.1636364,21.6666667 38.8818182,21.6666667 38.4545455,21.6666667 C38.4545455,20.8 37.6,19.0666667 36.7454545,18.2 C35.8909091,17.3333333 34.1818182,16.4666667 32.0454545,16.4666667 C31.1909091,16.4666667 30.3363636,16.4666667 29.4818182,16.9 C29.0545455,16.0333333 28.6272727,15.6 28.2,14.7333333 C27.3454545,13.8666667 26.0636364,13 23.5,13 C22.6454545,13 21.7909091,13 21.3636364,13.4333333 L21.3636364,6.06666667 C21.3636364,3.46666667 19.6545455,0 15.3818182,0 C13.6727273,0 11.9636364,0.866666667 10.6818182,1.73333333 C8.54545455,4.33333333 8.54545455,7.8 8.54545455,7.8 L8.54545455,26.4333333 C5.98181818,26.8666667 3.84545455,27.7333333 2.56363636,29.0333333 C0,32.0666667 0,35.9666667 0,41.1666667 C0,42.0333333 0,43.3333333 0,44.2 C0,50.2666667 2.99090909,53.3 5.98181818,56.3333333 L7.26363636,58.0666667 C12.8181818,63.2666667 17.5181818,65 29.0545455,65 C41.4454545,65 47,58.0666667 47,42.9 L47,32.0666667 C47,29.0333333 46.1454545,22.9666667 41.0181818,21.6666667 Z M42.7272727,32.0666667 L42.7272727,43.3333333 C42.7272727,58.0666667 37.1727273,61.1 29.0545455,61.1 C18.8,61.1 14.9545455,59.8 10.6818182,55.4666667 C10.2545455,55.0333333 9.82727273,54.6 8.97272727,53.7333333 C5.98181818,50.2666667 4.27272727,48.5333333 4.27272727,44.2 C4.27272727,43.3333333 4.27272727,42.0333333 4.27272727,41.1666667 C4.27272727,36.8333333 4.27272727,33.8 5.55454545,32.0666667 C5.98181818,31.6333333 7.26363636,31.2 8.54545455,31.2 L8.54545455,33.3666667 L7.26363636,39.8666667 C7.26363636,40.3 7.26363636,40.3 7.69090909,40.7333333 C8.11818182,41.1666667 8.54545455,40.7333333 8.54545455,40.7333333 L12.8181818,35.5333333 C12.8181818,35.1 12.8181818,34.6666667 12.8181818,34.6666667 L12.8181818,7.8 C12.8181818,7.36666667 12.8181818,5.63333333 13.6727273,4.76666667 C14.1,4.76666667 14.5272727,4.33333333 15.3818182,4.33333333 C16.6636364,4.33333333 17.0909091,5.63333333 17.0909091,6.06666667 L17.0909091,19.5 C17.0909091,19.5 17.0909091,19.5 17.0909091,19.5 L17.0909091,24.7 C17.0909091,26 17.9454545,27.3 19.2272727,27.3 C20.5090909,27.3 21.3636364,26 21.3636364,25.1333333 L21.3636364,19.5 C21.3636364,19.5 21.3636364,19.5 21.3636364,19.5 C21.3636364,19.0666667 21.7909091,17.3333333 23.5,17.3333333 C24.7818182,17.3333333 25.6363636,17.7666667 25.6363636,19.0666667 L25.6363636,24.7 C25.6363636,26 26.4909091,27.3 27.7727273,27.3 C29.0545455,27.3 29.9090909,26 29.9090909,25.1333333 L29.9090909,22.1 C29.9090909,21.6666667 30.3363636,20.8 32.0454545,20.8 C32.9,20.8 33.3272727,21.2333333 33.3272727,21.2333333 C34.1818182,21.6666667 34.1818182,22.9666667 34.1818182,22.9666667 L34.1818182,26.4333333 C34.1818182,27.7333333 35.0363636,28.6 35.8909091,28.6 C37.1727273,28.6 38.0272727,28.1666667 38.0272727,26.8666667 C38.0272727,26.4333333 38.4545455,26 38.8818182,25.5666667 C38.8818182,25.5666667 39.3090909,25.5666667 39.7363636,25.5666667 C42.3,26.4333333 42.7272727,30.7666667 42.7272727,32.0666667 C42.7272727,31.6333333 42.7272727,31.6333333 42.7272727,32.0666667 Z" id="Shape"></path>
        </g>
    </g>
</svg>