<?xml version="1.0" encoding="UTF-8"?>
<svg width="408px" height="323px" viewBox="0 0 408 323" version="1.1" xmlns="http://www.w3.org/2000/svg" xmlns:xlink="http://www.w3.org/1999/xlink">
    <!-- Generator: Sketch 51.3 (57544) - http://www.bohemiancoding.com/sketch -->
    <title>Artboard 2</title>
    <desc>Created with Sketch.</desc>
    <defs></defs>
    <g id="Artboard-2" stroke="none" stroke-width="1" fill="none" fill-rule="evenodd">
        <g id="Group-3" transform="translate(32.000000, 23.000000)" fill="#4A4A4A" fill-rule="nonzero">
            <g id="002-analytics" transform="translate(123.000000, 39.000000)">
                <path d="M140.020467,137.15 L2.97925395,137.15 C1.33475716,137.15 0,138.460238 0,140.074863 C0,141.689488 1.33475716,143 2.97925395,143 L140.020746,143 C141.665243,143 143,141.689488 143,140.074863 C142.999721,138.460238 141.664964,137.15 140.020467,137.15 Z" id="Shape"></path>
                <path d="M26.8936795,100.75 L8.85632046,100.75 C7.19688342,100.75 5.85,102.081296 5.85,103.721528 L5.85,139.378751 C5.85,141.018704 7.19688342,142.35 8.85632046,142.35 L26.8936795,142.35 C28.5531166,142.35 29.9,141.018704 29.9,139.378472 L29.9,103.721249 C29.9,102.081017 28.5531166,100.75 26.8936795,100.75 Z M23.8873591,136.407222 L11.8626409,136.407222 L11.8626409,106.692778 L23.8876409,106.692778 L23.8876409,136.407222 L23.8873591,136.407222 Z" id="Shape"></path>
                <path d="M62.6436795,71.5 L44.6063205,71.5 C42.9468834,71.5 41.6,72.8347546 41.6,74.4792481 L41.6,140.020752 C41.6,141.665245 42.9468834,143 44.6063205,143 L62.6436795,143 C64.3031166,143 65.65,141.665245 65.65,140.020752 L65.65,74.4792481 C65.65,72.8347546 64.3031166,71.5 62.6436795,71.5 Z M59.6373591,137.041504 L47.6123591,137.041504 L47.6123591,77.458217 L59.6373591,77.458217 L59.6373591,137.041504 Z" id="Shape"></path>
                <path d="M98.3936795,83.2 L80.3563205,83.2 C78.6968834,83.2 77.35,84.5250483 77.35,86.1575832 L77.35,139.392417 C77.35,141.024952 78.6968834,142.35 80.3563205,142.35 L98.3936795,142.35 C100.053117,142.35 101.4,141.024952 101.4,139.392417 L101.4,86.1575832 C101.4,84.524771 100.053117,83.2 98.3936795,83.2 Z M95.3873591,136.434834 L83.3623591,136.434834 L83.3623591,89.1148891 L95.3873591,89.1148891 L95.3873591,136.434834 Z" id="Shape"></path>
                <path d="M134.14368,47.45 L116.10632,47.45 C114.446883,47.45 113.1,48.7877907 113.1,50.436025 L113.1,140.013975 C113.1,141.662209 114.446883,143 116.10632,143 L134.14368,143 C135.803117,143 137.15,141.662209 137.15,140.013975 L137.15,50.436025 C137.15,48.7875108 135.803117,47.45 134.14368,47.45 Z M131.137359,137.02795 L119.112359,137.02795 L119.112359,53.42177 L131.137359,53.42177 L131.137359,137.02795 Z" id="Shape"></path>
                <path d="M17.875,53.95 C11.2431704,53.95 5.85,59.3431704 5.85,65.975 C5.85,72.6068296 11.2431704,78 17.875,78 C24.5068296,78 29.9,72.6068296 29.9,65.975 C29.9,59.3431704 24.5068296,53.95 17.875,53.95 Z M17.875,71.9873591 C14.5561259,71.9873591 11.8626409,69.2876737 11.8626409,65.975 C11.8626409,62.6620444 14.5561259,59.9626409 17.875,59.9626409 C21.1938741,59.9626409 23.8873591,62.6623263 23.8873591,65.975 C23.8873591,69.2876737 21.1938741,71.9873591 17.875,71.9873591 Z" id="Shape"></path>
                <path d="M53.625,24.05 C46.9931704,24.05 41.6,29.4431704 41.6,36.075 C41.6,42.7068296 46.9931704,48.1 53.625,48.1 C60.2568296,48.1 65.65,42.7068296 65.65,36.075 C65.65,29.4431704 60.2568296,24.05 53.625,24.05 Z M53.625,42.0873591 C50.3061259,42.0873591 47.6126409,39.3876737 47.6126409,36.075 C47.6126409,32.7620444 50.3061259,30.0626409 53.625,30.0626409 C56.9438741,30.0626409 59.6373591,32.7623263 59.6373591,36.075 C59.6373591,39.3879556 56.9438741,42.0873591 53.625,42.0873591 Z" id="Shape"></path>
                <path d="M89.375,35.1 C82.7431704,35.1 77.35,40.4931704 77.35,47.125 C77.35,53.7568296 82.7431704,59.15 89.375,59.15 C96.0068296,59.15 101.4,53.7568296 101.4,47.125 C101.4,40.4931704 96.0068296,35.1 89.375,35.1 Z M89.375,53.1373591 C86.0561259,53.1373591 83.3626409,50.4376737 83.3626409,47.125 C83.3626409,43.8120444 86.0561259,41.1126409 89.375,41.1126409 C92.6938741,41.1126409 95.3873591,43.8123263 95.3873591,47.125 C95.3873591,50.4376737 92.6938741,53.1373591 89.375,53.1373591 Z" id="Shape"></path>
                <path d="M125.125,0 C118.49317,0 113.1,5.39317037 113.1,12.025 C113.1,18.6568296 118.49317,24.05 125.125,24.05 C131.75683,24.05 137.15,18.6568296 137.15,12.025 C137.15,5.39317037 131.75683,0 125.125,0 Z M125.125,18.0373591 C121.806126,18.0373591 119.112641,15.3376737 119.112641,12.025 C119.112641,8.71204444 121.806126,6.01264092 125.125,6.01264092 C128.443874,6.01264092 131.137359,8.71232627 131.137359,12.025 C131.137359,15.3376737 128.443874,18.0373591 125.125,18.0373591 Z" id="Shape"></path>
                <path d="M120.673309,15.8267329 C119.504388,14.6577557 117.604049,14.6577557 116.435128,15.8267329 L93.1766907,39.086287 C92.0077698,40.2552641 92.0077698,42.155695 93.1766907,43.3246722 C93.7642421,43.9060697 94.5313465,44.2 95.2987319,44.2 C96.0599355,44.2 96.8273209,43.9122518 97.4148723,43.3246722 L120.673309,20.065118 C121.84223,18.8961409 121.84223,16.99571 120.673309,15.8267329 Z" id="Shape"></path>
                <path d="M82.3128537,40.8129888 L62.9804629,35.2227659 C61.3613191,34.7467344 59.7181942,35.6987973 59.2667863,37.3222821 C58.8094536,38.9457668 59.7362505,40.6301859 61.3311312,41.093916 L80.663522,46.684139 C80.9402915,46.7633822 81.2173431,46.8 81.4881878,46.8 C82.8003742,46.8 84.0039406,45.9271803 84.3831233,44.5846228 C84.8407381,42.9674317 83.9139412,41.276719 82.3128537,40.8129888 Z" id="Shape"></path>
                <path d="M48.7430969,39.4808208 C47.7119391,38.1838433 45.829212,37.9735911 44.534152,39.0003649 L21.9304656,57.049968 C20.6354057,58.0888447 20.4195623,59.974078 21.4569031,61.2710554 C22.0504723,62.0155227 22.9259305,62.4 23.8011078,62.4 C24.4545397,62.4 25.1141547,62.1838371 25.665848,61.7515113 L48.2695344,43.7019082 C49.5645943,42.6630315 49.7804377,40.7777982 48.7430969,39.4808208 Z" id="Shape"></path>
            </g>
            <path d="M333.93873,222.498753 C334.149414,222.178486 334.332617,221.839418 334.484414,221.487383 C334.606113,221.205366 334.704258,220.909735 334.780811,220.612158 C334.918213,220.073409 335,219.52299 335,218.966088 L335,193.862707 C335,190.282715 332.070059,187.379563 328.457031,187.379563 L312.746709,187.379563 L130.002246,187.379563 L115.146436,187.379563 L115.146436,124.732296 C115.146436,121.152304 112.217148,118.249152 108.603467,118.249152 L89.0445703,118.249152 L89.0445703,77.4831438 C89.0445703,73.9031518 86.1152832,71 82.5016016,71 C78.8879199,71 75.9586328,73.9031518 75.9586328,77.4831438 L75.9586328,118.249152 L29.8941699,118.249152 C26.2804883,118.249152 23.3512012,121.152304 23.3512012,124.732296 L23.3512012,187.379563 L6.54296875,187.379563 C2.92928711,187.379563 0,190.282715 0,193.862707 L0,218.966088 C0,244.900608 23.8857617,266 53.2453711,266 L138.61083,266 C142.224512,266 145.153799,263.096848 145.153799,259.516856 C145.153799,255.936864 142.224512,253.033712 138.61083,253.033712 L53.2453711,253.033712 C33.7152637,253.033712 17.4042969,241.142978 13.8239844,225.449232 L309.524297,225.449232 L274.058135,253.033712 L190.95458,253.033712 C187.340898,253.033712 184.411611,255.936864 184.411611,259.516856 C184.411611,263.096848 187.340898,266 190.95458,266 L276.320039,266 C277.78501,266 279.207451,265.512468 280.360322,264.616497 L332.497969,224.065729 C333.058047,223.624227 333.546152,223.092609 333.93873,222.498753 Z M36.4371387,131.21544 L102.060498,131.21544 L102.060498,152.814682 L67.6955176,152.814682 C64.0818359,152.814682 61.1525488,155.717185 61.1525488,159.297826 C61.1525488,162.877818 64.0818359,165.780969 67.6955176,165.780969 L102.060498,165.780969 L102.060498,187.379563 L36.4371387,187.379563 L36.4371387,131.21544 Z M29.8941699,200.345851 L108.603467,200.345851 L136.545215,200.345851 L221.373496,200.345851 L306.203086,200.345851 L321.914062,200.345851 L321.914062,212.482944 L13.0859375,212.482944 L13.0859375,200.345851 L29.8941699,200.345851 Z" id="Shape"></path>
            <path d="M164.5,253 C160.9198,253 158,255.9198 158,259.5 C158,263.0802 160.9198,266 164.5,266 C168.0802,266 171,263.0802 171,259.5 C171,255.9198 168.07955,253 164.5,253 Z" id="Shape"></path>
            <path d="M231.595577,50.5709067 C230.865572,50.1321986 230.11631,49.6911851 229.367048,49.2588508 C229.54321,47.7576147 229.543616,46.2390201 229.367862,44.7407675 C230.119972,44.3068058 230.868827,43.8660635 231.595306,43.429254 C232.818536,42.6942314 233.328441,41.143361 232.781106,39.8215409 C232.781106,39.8215409 232.781106,39.8215409 232.780971,39.8214053 L231.18467,35.9675545 C230.6372,34.6461413 229.180716,33.909627 227.795293,34.2547621 C226.971986,34.4596734 226.130779,34.6776035 225.292555,34.9024499 C224.356689,33.718277 223.282769,32.6446287 222.097105,31.7082208 C222.321951,30.8698612 222.540017,30.0282468 222.745064,29.2046689 C223.090199,27.8199244 222.35382,26.3628981 221.032407,25.8154284 L217.178555,24.2191275 C215.857142,23.6715222 214.305864,24.1810203 213.570571,25.4045209 C213.132676,26.1333053 212.691527,26.8825672 212.25865,27.6330497 C210.757821,27.4568883 209.239497,27.4564815 207.740566,27.6321004 C207.306333,26.8793125 206.865455,26.1303218 206.429188,25.4045209 C205.693623,24.1812915 204.142752,23.6716578 202.821203,24.2191275 L198.967352,25.8154284 C197.64621,26.3627625 196.90956,27.8199244 197.254695,29.2046689 C197.460149,30.0298741 197.677943,30.8712173 197.902383,31.7074072 C196.718345,32.6430014 195.644561,33.7171921 194.708289,34.9028567 C193.868031,34.6773323 193.026416,34.4595377 192.204465,34.2547621 C190.819314,33.9093557 189.362559,34.6464125 188.815089,35.9676901 L187.219059,39.8214053 C186.67186,41.1429541 187.18163,42.6939602 188.404588,43.4289828 C189.133508,43.8670128 189.88277,44.3080263 190.633117,44.7410387 C190.457091,46.2417324 190.456685,47.7600557 190.632303,49.259122 C189.881278,49.6924056 189.132423,50.1332835 188.404317,50.5707711 C187.181359,51.3059293 186.671589,52.8567998 187.218923,54.1784842 L188.81536,58.032335 C189.362694,59.3536126 190.819043,60.0903981 192.204737,59.7451274 C193.027094,59.5403517 193.868437,59.3225572 194.707204,59.0974396 C195.64307,60.2814769 196.716989,61.3549895 197.902654,62.291533 C197.677536,63.130842 197.459606,63.9724564 197.254695,64.795085 C196.90956,66.1798295 197.645939,67.6369914 198.967352,68.1843255 L202.821339,69.7807619 C203.179357,69.928987 203.554056,69.999777 203.924822,69.999777 C204.923205,69.999777 205.89311,69.4872954 206.429731,68.5955042 C206.86437,67.8722799 207.305248,67.1232892 207.741651,66.3671111 C209.242209,66.5430011 210.76094,66.5432724 212.259735,66.3679247 C212.690849,67.1154237 213.131727,67.8642788 213.571113,68.5956398 C214.306407,69.8188692 215.857278,70.3283673 217.179098,69.7810332 L221.032949,68.1847323 C222.354091,67.6373982 223.090741,66.1802363 222.745606,64.7954918 C222.54178,63.9773385 222.323985,63.1359953 222.097918,62.2927535 C223.281685,61.3571593 224.355604,60.2831042 225.292148,59.0974396 C226.129965,59.3221504 226.97158,59.5399449 227.795564,59.745263 C229.180309,60.0906694 230.637471,59.3541551 231.184941,58.0324706 L232.781242,54.1784842 C233.328305,52.8569354 232.818536,51.3059293 231.595577,50.5709067 Z M228.377751,56.6871894 C227.586178,56.4889232 226.77928,56.2792655 225.976994,56.0630983 C224.841099,55.7575622 223.642415,56.1569425 222.923124,57.0811453 C222.096427,58.1429952 221.139677,59.0998807 220.079589,59.9253571 C219.156472,60.6443773 218.757634,61.8426539 219.063441,62.9778705 C219.280829,63.7853104 219.490351,64.5916654 219.687397,65.3776785 L216.144913,66.8448757 C215.723563,66.1418578 215.301671,65.4235157 214.889272,64.7069365 C214.302474,63.6879403 213.173089,63.1232477 212.012106,63.2669975 C210.678894,63.432581 209.325611,63.4324453 207.990637,63.2663194 C206.826399,63.1217559 205.697963,63.6864485 205.111301,64.705716 C204.693884,65.4304319 204.271856,66.1491809 203.855117,66.8447401 L200.312633,65.3774073 C200.510764,64.5871902 200.720422,63.7804284 200.93686,62.9769212 C201.242667,61.8411622 200.843016,60.6423431 199.918813,59.9229161 C198.856963,59.0963547 197.900213,58.1397405 197.074601,57.0797891 C196.355852,56.1564001 195.157575,55.7576978 194.021951,56.0633696 C193.218715,56.2796723 192.412225,56.4893301 191.622279,56.6873251 L190.154946,53.1449774 C190.854709,52.7253907 191.573322,52.3034986 192.292885,51.8892009 C193.312017,51.3024033 193.877252,50.1732894 193.73296,49.0121707 C193.567105,47.6788235 193.567512,46.3256768 193.733367,44.9905667 C193.878202,43.8283631 193.313373,42.6980286 192.293699,42.1110954 C191.574407,41.6969333 190.855658,41.2749056 190.15481,40.8546408 L191.622143,37.3122932 C192.411411,37.5101526 193.218037,37.7198103 194.022765,37.9363843 C195.158117,38.2423273 196.356937,37.8425401 197.076771,36.9183374 C197.903332,35.8564874 198.860082,34.899602 199.919898,34.0742612 C200.843151,33.3553766 201.241989,32.1569643 200.936182,31.0213409 C200.720557,30.2206816 200.5109,29.4143266 200.312226,28.6218042 L203.85471,27.1546069 C204.272941,27.8524715 204.694969,28.5709493 205.110351,29.2925462 C205.697284,30.311678 206.827619,30.8777267 207.987517,30.7324852 C209.320187,30.5666305 210.673198,30.5666305 212.009393,30.7331632 C213.172275,30.8779979 214.301932,30.3124917 214.888594,29.2933598 C215.30262,28.5740684 215.724784,27.8553194 216.144642,27.1546069 L219.687125,28.6218042 C219.488859,29.4128349 219.279201,30.2195967 219.062899,31.0225614 C218.757091,32.1581848 219.156743,33.3570039 220.080946,34.076431 C221.14266,34.9029923 222.099546,35.8596065 222.925158,36.9195579 C223.643907,37.8426757 224.841777,38.2415136 225.977943,37.9358419 C226.780636,37.7196747 227.586992,37.510017 228.37748,37.3118864 L229.844677,40.854234 C229.145863,41.2731426 228.427386,41.6950347 227.706738,42.1100105 C226.687606,42.6968081 226.122235,43.8260577 226.266663,44.9871763 C226.432518,46.3198455 226.432247,47.6731278 226.265985,49.0090516 C226.121421,50.1713908 226.686521,51.3014541 227.705789,51.8882516 C228.423995,52.3017357 229.142744,52.7237634 229.844677,53.144435 L228.377751,56.6871894 Z" id="Shape"></path>
            <path d="M222.162696,43.7888272 C222.162696,43.7888272 222.162696,43.7888272 222.162556,43.7886864 C219.841633,38.1866079 213.394876,35.5167189 207.79044,37.8371556 C202.186989,40.157733 199.516238,46.6033123 201.837443,52.2053908 C202.96171,54.9193485 205.076172,57.0328171 207.790581,58.1570624 C209.147785,58.7189739 210.573857,59 211.999929,59 C213.426,59 214.852072,58.7189739 216.209558,58.1570624 C221.813009,55.8364849 224.483619,49.3910465 222.162696,43.7888272 Z M214.974315,55.1758764 C213.056456,55.970099 210.944106,55.9699583 209.025683,55.1758764 C207.107824,54.3816538 205.614012,52.8881041 204.819434,50.9706217 C203.179156,47.0123208 205.066314,42.4578953 209.025824,40.8183416 C209.995457,40.4167952 211.000439,40.2267224 211.98993,40.2267224 C215.041351,40.2267224 217.942223,42.0345258 219.180846,45.0235963 C220.820843,48.9818972 218.933685,53.5361819 214.974315,55.1758764 Z" id="Shape"></path>
            <path d="M252.921693,13.5795474 C252.389469,13.499902 251.842851,13.4225437 251.292331,13.3490869 C251.014918,12.4265721 250.644407,11.5321753 250.187254,10.6827136 C250.524132,10.2421075 250.856166,9.80069421 251.177034,9.36708399 C251.8894,8.40367015 251.786346,7.03732035 250.93756,6.18893497 L248.81082,4.06245556 C247.962034,3.21353204 246.595689,3.11061183 245.632548,3.82325016 C245.19746,4.14519533 244.756183,4.47709617 244.316924,4.81276403 C243.4676,4.35560997 242.573341,3.98509723 241.650561,3.70754902 C241.57697,3.15702683 241.499881,2.61040618 241.420236,2.07831545 C241.243052,0.893589542 240.204168,0 239.00384,0 L235.99616,0 C234.795832,0 233.756948,0.893589542 233.579764,2.07818092 C233.500254,2.61000258 233.42303,3.15675775 233.349439,3.70741448 C232.426659,3.9849627 231.532266,4.35547543 230.683076,4.81262949 C230.244086,4.4768271 229.80254,4.14479172 229.367586,3.82311563 C228.404176,3.1104773 227.037831,3.2133975 226.189315,4.06218648 L224.062844,6.18853136 C223.213923,7.03718581 223.110734,8.40367015 223.82337,9.36721852 C224.143969,9.80069421 224.476003,10.2422421 224.812746,10.6827136 C224.355862,11.5320408 223.985216,12.426303 223.707669,13.3490869 C223.157284,13.4226782 222.610531,13.499902 222.078442,13.5795474 C220.893586,13.7568662 220,14.7956203 220,15.9960869 L220,19.003644 C220,20.2039761 220.893317,21.2428648 222.078173,21.4201835 C222.610396,21.4998289 223.157015,21.5771873 223.707535,21.650644 C223.985082,22.5732934 224.355593,23.4675556 224.812611,24.3170173 C224.476137,24.7572198 224.144103,25.1984986 223.822832,25.6326469 C223.1106,26.5957917 223.21352,27.9624106 224.062305,28.8106614 L226.189046,30.9374099 C227.037697,31.7863334 228.404041,31.8891191 229.367317,31.1766153 C229.802405,30.8549392 230.243683,30.5227693 230.682807,30.187236 C231.5324,30.64439 232.426793,31.0149028 233.349305,31.2923164 C233.422627,31.8427041 233.499985,32.3894593 233.57963,32.9216845 C233.756948,34.1064105 234.795832,35 235.99616,35 L239.00384,35 C240.204168,35 241.243052,34.1066795 241.420236,32.92155 C241.499746,32.3893247 241.57697,31.8427041 241.650561,31.2921819 C242.573207,31.0149028 243.467465,30.644121 244.316924,30.1869669 C244.755914,30.5227693 245.19746,30.8548047 245.632414,31.1766153 C246.595555,31.8892536 247.962169,31.7863334 248.810685,30.9375444 L250.937426,28.811065 C251.786211,27.9624106 251.889266,26.5959262 251.17663,25.6325124 C250.855628,25.1984986 250.523594,24.7569507 250.187254,24.3171518 C250.644138,23.4678247 251.014784,22.573697 251.292331,21.6507786 C251.842716,21.5771873 252.389469,21.4999635 252.921558,21.420318 C254.106414,21.2429993 255,20.2042452 255,19.0037785 L255,15.9962215 C254.999865,14.7957548 254.106414,13.7568662 252.921693,13.5795474 Z M252.070754,18.5851018 C251.587502,18.6551952 251.094429,18.7232705 250.599741,18.7877134 C249.621263,18.9153883 248.820237,19.6098642 248.559507,20.5567301 C248.309674,21.4633696 247.947101,22.3382586 247.482011,23.157046 C246.996202,24.0117546 247.071139,25.0694783 247.672917,25.8520755 C247.976295,26.2465357 248.277251,26.6435521 248.570135,27.0358597 L247.03589,28.5702452 C246.642373,28.2765526 246.245359,27.9757297 245.851707,27.6730232 C245.069517,27.0709736 244.011528,26.9965751 243.156688,27.4818472 C242.337769,27.9470735 241.462884,28.3096486 240.556786,28.5594823 C239.609385,28.8204826 238.914912,29.6215112 238.787641,30.599724 C238.723199,31.0944137 238.655258,31.5876234 238.58503,32.0708775 L236.41497,32.0708775 C236.344876,31.5876234 236.276936,31.0945482 236.212359,30.6002622 C236.084684,29.6216457 235.390346,28.8206171 234.443214,28.5596168 C233.536847,28.3099176 232.662231,27.9473425 231.843043,27.4821163 C230.988203,26.9964406 229.930214,27.0711082 229.148158,27.6730232 C228.754372,27.9758642 228.357627,28.2765526 227.963841,28.5702452 L226.429596,27.0358597 C226.72248,26.6431485 227.023302,26.2464012 227.327083,25.8515374 C227.928458,25.0692093 228.003394,24.0114855 227.51772,23.156777 C227.05263,22.3379896 226.690057,21.462966 226.440224,20.5565955 C226.179359,19.6094606 225.378468,18.9151192 224.39999,18.7874443 C223.905302,18.7228669 223.412094,18.6550607 222.928842,18.5846982 L222.928842,16.4148982 C223.412094,16.3448048 223.905168,16.2767295 224.399855,16.2122866 C225.378334,16.0846117 226.179359,15.3901358 226.440089,14.4432699 C226.689922,13.5367649 227.052361,12.6618759 227.517586,11.842954 C228.003394,10.9882454 227.928458,9.93038712 227.326949,9.14805903 C227.023033,8.7530607 226.722211,8.35617886 226.429596,7.96414033 L227.963841,6.4297548 C228.357358,6.72344736 228.754238,7.02427033 229.147755,7.32684228 C229.929676,7.92889184 230.98753,8.00396305 231.843043,7.51815278 C232.661693,7.05306108 233.536713,6.69048598 234.442945,6.4405177 C235.390346,6.17951744 236.084819,5.37848881 236.21209,4.40027599 C236.276667,3.90558633 236.344742,3.4125111 236.414835,2.92925701 L238.584896,2.92925701 C238.654989,3.41237656 238.722929,3.90545179 238.787372,4.39987238 C238.915046,5.37848881 239.60952,6.17951744 240.556517,6.44038316 C241.463018,6.69021691 242.338038,7.05292655 243.156822,7.51801824 C244.011797,8.00382852 245.069651,7.9283537 245.851573,7.32697682 C246.245359,7.02427033 246.642104,6.72344736 247.03589,6.4297548 L248.570135,7.96414033 C248.27752,8.3563134 247.976698,8.75332977 247.672782,9.14846264 C247.071273,9.93065619 246.996471,10.9883799 247.481876,11.8430885 C247.946966,12.662145 248.30954,13.5371685 248.559373,14.4434045 C248.820237,15.3905394 249.621128,16.0848808 250.599606,16.2125557 C251.094294,16.2771331 251.587502,16.3450739 252.070754,16.4153018 L252.070754,18.5851018 Z" id="Shape"></path>
            <path d="M240,10 C236.691666,10 234,12.6915078 234,15.9999353 C234,19.3084922 236.691537,22 240,22 C243.308463,22 246,19.3084922 246,15.9999353 C246,12.6915078 243.308463,10 240,10 Z M240,19.3328017 C238.16241,19.3328017 236.667098,17.8376346 236.667098,15.999806 C236.667098,14.1619775 238.162281,12.6669396 240,12.6669396 C241.837719,12.6669396 243.332773,14.1621068 243.332902,15.999806 C243.332902,17.8376346 241.837719,19.3328017 240,19.3328017 Z" id="Shape"></path>
        </g>
    </g>
</svg>